<!-- INTERPRETATION LOCKUP — swap for the official FoodRaksha vector when supplied.
     Mark + wordmark. The mark keeps its blue/green; the wordmark is graphite so
     it sits inside the titanium palette. -->
<svg xmlns="http://www.w3.org/2000/svg" viewBox="0 0 210 48" role="img" aria-label="FoodRaksha">
  <defs>
    <linearGradient id="frShieldL" x1="0" y1="0" x2="0" y2="1">
      <stop offset="0" stop-color="#2C6FD6"/>
      <stop offset="1" stop-color="#1E4FA8"/>
    </linearGradient>
  </defs>
  <path fill="url(#frShieldL)"
    d="M24 3.2l16.2 5.6a1.6 1.6 0 0 1 1.1 1.5v11.9c0 9.9-6.9 18.5-16.7 21.5a2 2 0 0 1-1.2 0C13.6 40.7 6.7 32.1 6.7 22.2V10.3a1.6 1.6 0 0 1 1.1-1.5z"/>
  <path fill="#43A57A"
    d="M24 13.2c5.9 0 10.7 4.4 10.7 10.6 0 5.2-3.6 9.8-9.4 11.2a1 1 0 0 1-1.2-.8c-1-5.6.4-10.9 4.6-15.1a.6.6 0 0 0-.8-.9c-4.2 2.9-6.6 6.8-7.4 11.6-1.9-2-3.2-4.7-3.2-7.9 0-6.2 4.8-9.8 6.1-9.8z"/>
  <path fill="#8FD3B4"
    d="M24.4 34.7c-.3-4.7 1-9 3.9-12.7a.5.5 0 0 1 .8.6c-2.5 3.7-3.6 7.8-3.4 12.1z"/>
  <text x="54" y="31" font-family="-apple-system, BlinkMacSystemFont, 'SF Pro Text', Inter, sans-serif"
    font-size="23" font-weight="700" letter-spacing="-0.6" fill="#1D1D1F">FoodRaksha</text>
</svg>
